<svg id="filter-button-icon" width="46" height="46" viewBox="0 0 46 46" fill="none"
  xmlns="http://www.w3.org/2000/svg">
<rect x="0.5" y="0.5" width="45" height="45" rx="1.5" fill="#AE7AFF"/>
<rect x="0.5" y="0.5" width="45" height="45" rx="1.5" stroke="black"/>
<path d="M17.1992 18.2188C17.0586 18.0547 17 17.8789 17.0234 17.6914C17.0469 17.5039 17.1289 17.3398 17.2695 17.1992C17.4102 17.0586 17.5859 16.9883 17.7969 16.9883H28.2031C28.4141 16.9883 28.5898 17.0586 28.7305 17.1992C28.8711 17.3398 28.9531 17.5039 28.9766 17.6914C29 17.8789 28.9414 18.0547 28.8008 18.2188C28.4961 18.5938 28.1562 19.0273 27.7812 19.5195C27.4062 20.0117 27.0195 20.5039 26.6211 20.9961C26.2461 21.4883 25.8945 21.9453 25.5664 22.3672C25.2617 22.7891 25.0039 23.1289 24.793 23.3867C24.6055 23.6211 24.5117 23.7383 24.5117 23.7383V28.2383C24.5117 28.4492 24.4297 28.6367 24.2656 28.8008C24.125 28.9414 23.9492 29.0117 23.7383 29.0117H22.2617C22.0508 29.0117 21.8633 28.9414 21.6992 28.8008C21.5586 28.6367 21.4883 28.4492 21.4883 28.2383V23.7383C21.4883 23.7383 21.3828 23.6211 21.1719 23.3867C20.9844 23.1289 20.7266 22.7891 20.3984 22.3672C20.0938 21.9453 19.7422 21.4883 19.3438 20.9961C18.9688 20.5039 18.5938 20.0117 18.2188 19.5195C17.8438 19.0273 17.5039 18.5938 17.1992 18.2188Z" fill="white"/>
</svg>
